<?xml version="1.0" encoding="UTF-8"?>
<svg id="Capa_1" data-name="Capa 1" xmlns="http://www.w3.org/2000/svg" xmlns:xlink="http://www.w3.org/1999/xlink" viewBox="0 0 376.26 152.09">
  <defs>
    <style>
      .cls-1 {
        letter-spacing: -.02em;
      }

      .cls-2 {
        clip-path: url(#clippath-2);
      }

      .cls-3, .cls-4, .cls-5 {
        stroke-width: 0px;
      }

      .cls-6 {
        stroke-width: 2px;
      }

      .cls-6, .cls-5 {
        fill: #fff;
      }

      .cls-6, .cls-7, .cls-8 {
        stroke-linejoin: round;
      }

      .cls-6, .cls-7, .cls-8, .cls-9 {
        stroke-linecap: round;
      }

      .cls-6, .cls-7, .cls-9 {
        stroke: #000;
      }

      .cls-4, .cls-7, .cls-8, .cls-9 {
        fill: none;
      }

      .cls-10 {
        clip-path: url(#clippath-1);
      }

      .cls-11 {
        letter-spacing: -.02em;
      }

      .cls-12 {
        clip-path: url(#clippath);
      }

      .cls-13 {
        font-family: Couture-BoldItalic, 'Couture BoldItalic';
        font-size: 66.5px;
        font-style: italic;
        font-weight: 700;
      }

      .cls-7, .cls-9 {
        stroke-width: 2.93px;
      }

      .cls-14 {
        letter-spacing: 0em;
      }

      .cls-8 {
        stroke: #fff;
        stroke-width: 1.01px;
      }

      .cls-9 {
        stroke-miterlimit: 10;
      }
    </style>
    <clipPath id="clippath">
      <rect class="cls-4" x="43.26" y="77.78" width="65.4" height="48.13" transform="translate(-50.36 115.5) rotate(-59.45)"/>
    </clipPath>
    <clipPath id="clippath-1">
      <rect class="cls-4" x="43.26" y="77.78" width="65.4" height="48.13" transform="translate(-50.36 115.5) rotate(-59.45)"/>
    </clipPath>
    <clipPath id="clippath-2">
      <rect class="cls-4" x="43.26" y="77.78" width="65.4" height="48.13" transform="translate(-50.36 115.5) rotate(-59.45)"/>
    </clipPath>
  </defs>
  <text class="cls-13" transform="translate(0 55.66)"><tspan x="0" y="0">BL</tspan><tspan class="cls-11" x="67.43" y="0">A</tspan><tspan class="cls-14" x="107.13" y="0">C</tspan><tspan class="cls-1" x="145.7" y="0">K</tspan><tspan x="180.62" y="0">OUT IN</tspan><tspan x="166.25" y="79.8">AN APP</tspan></text>
  <g class="cls-12">
    <g class="cls-10">
      <g class="cls-2">
        <path class="cls-5" d="M76.11,75.87c.88-1.49,2.45-2.33,4.06-2.34,1.76-1.52,4.36-1.83,6.47-.58,1.86,1.1,2.85,3.11,2.73,5.14,1.14-.2,2.35-.01,3.42.62.85.5,1.5,1.22,1.92,2.05,1.37-.77,2.96-.87,4.25-.11.85.5,1.44,1.3,1.73,2.23.3.08.59.2.87.36.05.03.1.07.15.1,1.25-.55,2.74-.52,4.01.23,2.09,1.23,2.78,3.92,1.54,6.01-.22.37-.48.7-.78.98.54,1.26.49,2.76-.27,4.04-1.01,1.72-2.99,2.51-4.84,2.1-3.06-.05-8.35-1.97-13.87-5.22-7.29-4.3-12.35-9.39-11.86-11.8-.37-1.23-.25-2.61.46-3.8"/>
        <path class="cls-9" d="M76.11,75.87c.88-1.49,2.45-2.33,4.06-2.34,1.76-1.52,4.36-1.83,6.47-.58,1.86,1.1,2.85,3.11,2.73,5.14,1.14-.2,2.35-.01,3.42.62.85.5,1.5,1.22,1.92,2.05,1.37-.77,2.96-.87,4.25-.11.85.5,1.44,1.3,1.73,2.23.3.08.59.2.87.36.05.03.1.07.15.1,1.25-.55,2.74-.52,4.01.23,2.09,1.23,2.78,3.92,1.54,6.01-.22.37-.48.7-.78.98.54,1.26.49,2.76-.27,4.04-1.01,1.72-2.99,2.51-4.84,2.1-3.06-.05-8.35-1.97-13.87-5.22-7.29-4.3-12.35-9.39-11.86-11.8-.37-1.23-.25-2.61.46-3.8Z"/>
        <path class="cls-7" d="M65.9,88.62l4.65,2.74-12.63,21.41-4.65-2.74c-3.32-1.96-4.42-6.25-2.45-9.59l5.51-9.33c1.97-3.33,6.26-4.45,9.58-2.49Z"/>
        <polygon class="cls-5" points="76.87 80.66 102.08 95.54 76.81 138.35 51.6 123.47 57.92 112.77 70.55 91.36 76.87 80.66"/>
        <polygon class="cls-7" points="76.87 80.66 102.08 95.54 76.81 138.35 51.6 123.47 57.92 112.77 70.55 91.36 76.87 80.66"/>
        <polygon class="cls-3" points="77.64 83.85 98.85 96.37 75.98 135.12 54.77 122.6 60.49 112.92 71.92 93.54 77.64 83.85"/>
        <polygon class="cls-8" points="77.64 83.85 98.85 96.37 75.98 135.12 54.77 122.6 60.49 112.92 71.92 93.54 77.64 83.85"/>
      </g>
    </g>
  </g>
  <circle class="cls-6" cx="105.61" cy="102.46" r="2"/>
  <circle class="cls-6" cx="102.89" cy="110.31" r="2.73"/>
</svg>